<svg id="Raggruppa_604" data-name="Raggruppa 604" xmlns="http://www.w3.org/2000/svg" xmlns:xlink="http://www.w3.org/1999/xlink" width="142.494" height="41.06" viewBox="0 0 142.494 41.06">
  <defs>
    <clipPath id="clip-path">
      <rect id="Rettangolo_615" data-name="Rettangolo 615" width="142.494" height="41.06" fill="#9e9e9e"/>
    </clipPath>
  </defs>
  <g id="Componente_109_1" data-name="Componente 109 – 1">
    <g id="Raggruppa_598" data-name="Raggruppa 598" clip-path="url(#clip-path)">
      <path id="Tracciato_1645" data-name="Tracciato 1645" d="M343.378,0H334.2V9.786a16.406,16.406,0,0,0-7.3-1.7,16.64,16.64,0,0,0-16.667,16.478,16.573,16.573,0,0,0,33.146,0ZM326.9,31.859a7.472,7.472,0,0,1-7.489-7.3,7.472,7.472,0,0,1,7.489-7.3,7.3,7.3,0,0,1,0,14.6" transform="translate(-251.719)" fill="#9e9e9e"/>
      <path id="Tracciato_1646" data-name="Tracciato 1646" d="M509.733,42.842a16.405,16.405,0,0,0-7.3,1.7v-1.7h-9.178V75.233h9.178V59.32a7.295,7.295,0,0,1,9.425-6.982V42.983a16.62,16.62,0,0,0-2.124-.141" transform="translate(-400.221 -34.761)" fill="#9e9e9e"/>
      <path id="Tracciato_1647" data-name="Tracciato 1647" d="M617.724,42.842l-9.981,17.169V42.842h-9.178V75.234H609l19.159-32.391Z" transform="translate(-485.668 -34.762)" fill="#9e9e9e"/>
      <path id="Tracciato_1648" data-name="Tracciato 1648" d="M45.25,30.419a7.305,7.305,0,0,1-11.659-4.228h23.62V24.68A16.469,16.469,0,0,0,28.606,13.538,16.443,16.443,0,0,0,9.178,9.912V.121H0v25.16A16.477,16.477,0,0,0,28.606,35.823,16.47,16.47,0,0,0,55.914,31.1L47.461,27.52a7.3,7.3,0,0,1-2.211,2.9M16.478,31.98a7.3,7.3,0,1,1,7.3-7.3,7.308,7.308,0,0,1-7.3,7.3m24.254-14.6A7.3,7.3,0,0,1,47.1,21.118H34.364a7.3,7.3,0,0,1,6.369-3.738" transform="translate(0 -0.098)" fill="#9e9e9e"/>
    </g>
  </g>
</svg>
