<svg id="Raggruppa_618" data-name="Raggruppa 618" xmlns="http://www.w3.org/2000/svg" xmlns:xlink="http://www.w3.org/1999/xlink" width="371.662" height="147.79" viewBox="0 0 371.662 147.79">
  <defs>
    <clipPath id="clip-path">
      <rect id="Rettangolo_655" data-name="Rettangolo 655" width="371.662" height="147.79" fill="none"/>
    </clipPath>
  </defs>
  <g id="Raggruppa_617" data-name="Raggruppa 617" clip-path="url(#clip-path)">
    <path id="Tracciato_1655" data-name="Tracciato 1655" d="M1384.308,322.227c0-2.415-1.878-3.663-5.1-3.663-3.367,0-5.071,1.449-5.071,4.172h3.622c-.027-1.073.953-1.221,1.61-1.221.993,0,1.315.389,1.315.9,0,1.757-6.655,1.221-6.655,6.037v1.677h10.237v-2.818h-5.89c1.02-1.864,5.93-1.207,5.93-5.084" transform="translate(-1055.441 -244.7)" fill="#fff"/>
    <path id="Tracciato_1656" data-name="Tracciato 1656" d="M1426.672,330.424c3.649,0,5.729-2.08,5.729-5.93s-2.079-5.93-5.729-5.93-5.728,2.079-5.728,5.93,2.079,5.93,5.728,5.93m0-8.734c1.369,0,2.066.979,2.066,2.8s-.7,2.8-2.066,2.8-2.066-.98-2.066-2.8.7-2.8,2.066-2.8" transform="translate(-1091.477 -244.7)" fill="#fff"/>
    <path id="Tracciato_1657" data-name="Tracciato 1657" d="M1472.946,328.452v1.677h10.236v-2.818h-5.89c1.02-1.864,5.93-1.207,5.93-5.084,0-2.415-1.878-3.663-5.1-3.663-3.367,0-5.071,1.449-5.071,4.172h3.622c-.027-1.073.953-1.221,1.61-1.221.993,0,1.315.389,1.315.9,0,1.757-6.654,1.221-6.654,6.037" transform="translate(-1131.421 -244.7)" fill="#fff"/>
    <path id="Tracciato_1658" data-name="Tracciato 1658" d="M1521.015,328.289v2.818h9.19v-2.818h-2.388v-8.452H1524.1a4,4,0,0,1-2.817,1.208v3.112a4.31,4.31,0,0,0,2.817-.764v4.9Z" transform="translate(-1168.345 -245.678)" fill="#fff"/>
    <path id="Tracciato_1659" data-name="Tracciato 1659" d="M361.958,515.346H351.4a1.078,1.078,0,0,0-1.051,1.052v2.68a.954.954,0,0,0,.315.683,1.008,1.008,0,0,0,.736.315h6.358v.841a7.671,7.671,0,0,1-.473,2.023,10.915,10.915,0,0,1-1.183,2.338,6.116,6.116,0,0,1-2.417,2,8.55,8.55,0,0,1-3.915.841,7.391,7.391,0,0,1-6.463-3.048,15.592,15.592,0,0,1,0-15.817,7.44,7.44,0,0,1,6.463-2.995,8.85,8.85,0,0,1,4.361.946,11.252,11.252,0,0,1,3.311,3.1,1.023,1.023,0,0,0,.683.368,1.152,1.152,0,0,0,.631-.262l2.259-1.577a1.008,1.008,0,0,0,.473-.893,1.4,1.4,0,0,0-.315-.841q-3.521-5.674-11.4-5.674-6.62,0-10.193,4.44a19.569,19.569,0,0,0,.053,22.621q3.625,4.467,10.141,4.467a25.366,25.366,0,0,0,2.758-.132,15.483,15.483,0,0,0,3.153-.814,9.107,9.107,0,0,0,3.311-1.945,12.425,12.425,0,0,0,2.522-3.783,18,18,0,0,0,1.5-6.043V516.4a1.081,1.081,0,0,0-1.052-1.052" transform="translate(-258.093 -385.16)" fill="#fff"/>
    <path id="Tracciato_1660" data-name="Tracciato 1660" d="M522.1,503.685H516.74a1.268,1.268,0,0,0-1.314.789l-8.776,28.48a1.138,1.138,0,0,0,.342.788,1.02,1.02,0,0,0,.762.367h3.31a.99.99,0,0,0,1-.735l1.418-4.676h11.876l1.419,4.676a.987.987,0,0,0,1,.735h3.311a1.021,1.021,0,0,0,.761-.367,1.142,1.142,0,0,0,.342-.788l-8.776-28.48a1.267,1.267,0,0,0-1.314-.789m-7.2,20.231,4.52-14.713,4.466,14.713Z" transform="translate(-389.176 -386.898)" fill="#fff"/>
    <path id="Tracciato_1661" data-name="Tracciato 1661" d="M703.269,514.405a10.914,10.914,0,0,0-1.156-5.176,9.333,9.333,0,0,0-2.549-3.206,10.948,10.948,0,0,0-3.232-1.6,16.291,16.291,0,0,0-2.549-.657,10.769,10.769,0,0,0-1.129-.08h-9.09a1.006,1.006,0,0,0-.71.342,1.055,1.055,0,0,0-.342.762v28.218a1.05,1.05,0,0,0,.342.761,1,1,0,0,0,.71.342h3.048a1,1,0,0,0,.708-.342,1.054,1.054,0,0,0,.342-.761v-7.935h5.675l4.624,8.67a.826.826,0,0,0,.788.367h3.573a.929.929,0,0,0,1.052-1.051l-4.992-9.563a9.945,9.945,0,0,0,4.887-9.091m-10.93,5.832h-4.676V508.519h4.676q5.78,0,5.78,5.886,0,5.833-5.78,5.832" transform="translate(-524.262 -386.898)" fill="#fff"/>
    <path id="Tracciato_1662" data-name="Tracciato 1662" d="M850.93,503.685H845.57a1.267,1.267,0,0,0-1.314.789l-8.776,28.48a1.138,1.138,0,0,0,.342.788,1.02,1.02,0,0,0,.762.367h3.31a.99.99,0,0,0,1-.735l1.418-4.676h11.876l1.419,4.676a.988.988,0,0,0,1,.735h3.311a1.022,1.022,0,0,0,.761-.367,1.143,1.143,0,0,0,.342-.788l-8.776-28.48a1.267,1.267,0,0,0-1.314-.789m-7.2,20.231,4.52-14.713,4.466,14.713Z" transform="translate(-641.762 -386.898)" fill="#fff"/>
    <path id="Tracciato_1663" data-name="Tracciato 1663" d="M1027.106,515.346h-10.561a1.078,1.078,0,0,0-1.051,1.052v2.68a.954.954,0,0,0,.315.683,1.008,1.008,0,0,0,.736.315h6.358v.841a7.666,7.666,0,0,1-.473,2.023,10.916,10.916,0,0,1-1.182,2.338,6.118,6.118,0,0,1-2.417,2,8.55,8.55,0,0,1-3.915.841,7.391,7.391,0,0,1-6.463-3.048,15.594,15.594,0,0,1,0-15.817,7.441,7.441,0,0,1,6.463-2.995,8.85,8.85,0,0,1,4.361.946,11.255,11.255,0,0,1,3.311,3.1,1.023,1.023,0,0,0,.683.368,1.153,1.153,0,0,0,.631-.262l2.258-1.577a1.009,1.009,0,0,0,.473-.893,1.4,1.4,0,0,0-.315-.841q-3.521-5.674-11.4-5.674-6.619,0-10.193,4.44a19.569,19.569,0,0,0,.053,22.621q3.625,4.467,10.141,4.467a25.369,25.369,0,0,0,2.759-.132,15.483,15.483,0,0,0,3.153-.814,9.107,9.107,0,0,0,3.311-1.945,12.43,12.43,0,0,0,2.522-3.783,18,18,0,0,0,1.5-6.043V516.4a1.081,1.081,0,0,0-1.052-1.052" transform="translate(-769.017 -385.16)" fill="#fff"/>
    <path id="Tracciato_1664" data-name="Tracciato 1664" d="M1205.536,503.685H1190.3a1.078,1.078,0,0,0-1.051,1.052v28.322a1.076,1.076,0,0,0,1.051,1.051h15.238a1.076,1.076,0,0,0,1.052-1.051v-2.784a.961.961,0,0,0-.315-.684,1.013,1.013,0,0,0-.736-.315H1194.4v-7.619h9.984a1.009,1.009,0,0,0,.735-.315.956.956,0,0,0,.316-.684v-2.784a1.078,1.078,0,0,0-1.051-1.051H1194.4v-8.3h11.139a1.012,1.012,0,0,0,.736-.315.959.959,0,0,0,.315-.684v-2.784a1.079,1.079,0,0,0-1.052-1.052" transform="translate(-913.502 -386.898)" fill="#fff"/>
    <path id="Tracciato_1665" data-name="Tracciato 1665" d="M793.848,118.406H775.978v19.052a31.942,31.942,0,0,0-14.213-3.319c-17.719,0-32.45,14.364-32.45,32.083s14.731,32.083,32.45,32.083a32.083,32.083,0,0,0,32.083-32.083Zm-32.083,62.029c-7.837,0-14.581-6.376-14.581-14.213s6.743-14.213,14.581-14.213a14.213,14.213,0,0,1,0,28.427" transform="translate(-560.212 -90.952)" fill="#fff"/>
    <path id="Tracciato_1666" data-name="Tracciato 1666" d="M1037.05,189.577v-3.319h-17.869v63.064h17.869V218.339a14.2,14.2,0,0,1,18.349-13.593V186.532a32.321,32.321,0,0,0-4.136-.274,31.944,31.944,0,0,0-14.213,3.319" transform="translate(-782.869 -143.071)" fill="#fff"/>
    <path id="Tracciato_1667" data-name="Tracciato 1667" d="M1223.266,186.258l-19.433,33.427V186.258h-17.87v63.064h20.322l37.3-63.064Z" transform="translate(-910.98 -143.071)" fill="#fff"/>
    <path id="Tracciato_1668" data-name="Tracciato 1668" d="M328.8,171.941a14.217,14.217,0,0,1-27-2.588h45.987v-2.942a32.065,32.065,0,0,0-55.693-21.694,32.014,32.014,0,0,0-37.824-7.058V118.6H236.4v48.985a32.08,32.08,0,0,0,55.694,20.524,32.065,32.065,0,0,0,53.169-9.2ZM315.7,152.2a14.221,14.221,0,0,1,12.4,7.279H303.3a14.221,14.221,0,0,1,12.4-7.279m-47.222,28.427a14.213,14.213,0,1,1,14.214-14.213,14.229,14.229,0,0,1-14.214,14.213" transform="translate(-181.585 -91.098)" fill="#fff"/>
    <path id="Tracciato_1669" data-name="Tracciato 1669" d="M58.634,322.816v-2.978H48.478v11.269H58.634v-2.978h-6.44v-1.435h6.2v-2.442h-6.2v-1.435Z" transform="translate(-37.237 -245.678)" fill="#fff"/>
    <path id="Tracciato_1670" data-name="Tracciato 1670" d="M100.781,327.34c-1.61-.013-2.254-.483-2.294-1.247H95.147c-.094,2.925,1.744,4.132,5.635,4.145,3.864.013,5.769-1.207,5.769-3.663,0-3.085-3.072-3.153-5.313-3.528l-1.194-.2c-.859-.134-1.06-.523-1.06-.845,0-.51.51-.885,1.744-.885,1.422,0,2.053.469,2.187,1.221h3.314c.067-3.22-2.187-4.119-5.42-4.119-3.582,0-5.393,1.368-5.393,3.6,0,2.884,2.562,3.14,4.7,3.488l1.449.228c1.1.161,1.3.537,1.3.9,0,.523-.657.926-2.08.912" transform="translate(-73.083 -244.434)" fill="#fff"/>
    <path id="Tracciato_1671" data-name="Tracciato 1671" d="M153.137,331.107v-8.17h4.052v-3.1H145.369v3.1h4.052v8.17Z" transform="translate(-111.663 -245.679)" fill="#fff"/>
    <path id="Tracciato_1672" data-name="Tracciato 1672" d="M192.106,357.277a1.825,1.825,0,1,0-1.851-1.825,1.858,1.858,0,0,0,1.851,1.825" transform="translate(-146.142 -271.634)" fill="#fff"/>
    <path id="Tracciato_1673" data-name="Tracciato 1673" d="M4.032,209.067V155.4c0-3.594,2.389-6.642,5.557-7.088l.088-.013,41.04-9.549V134.6L8.933,144.328C3.833,145.1,0,149.837,0,155.4v53.671a9.678,9.678,0,0,0,7.069,9.507l62.858,15.943-.07-4.178L8.035,214.659a5.623,5.623,0,0,1-4-5.592" transform="translate(0 -103.395)" fill="#fff"/>
    <path id="Tracciato_1674" data-name="Tracciato 1674" d="M617.078,40.932,441.743.134l-.27-.048a9.6,9.6,0,0,0-2.617,0l-.206.036L331.125,25.146v4.14L439.462,4.078a5.568,5.568,0,0,1,1.438,0l175.346,40.8.175.033c3.168.447,5.557,3.494,5.557,7.088v52.521a7.028,7.028,0,0,1-5.031,6.989l-60.457,15.37.06,4.145,61.364-15.6c4.693-1.123,8.1-5.709,8.1-10.9V52c0-5.558-3.833-10.3-8.932-11.067" transform="translate(-254.349 0.001)" fill="#fff"/>
  </g>
</svg>
