<svg xmlns="http://www.w3.org/2000/svg" width="28" height="27.096" viewBox="0 0 28 27.096">
  <g id="Facebook" transform="translate(0)">
    <path id="Facebook-2" data-name="Facebook" d="M15.1,38.978h0a13.574,13.574,0,0,0-2.092,27.038V57.392h-2.8a.462.462,0,0,1-.467-.454V54.2a.463.463,0,0,1,.467-.455h2.8v-4.1a4.616,4.616,0,0,1,4.672-4.556h3.271a.463.463,0,0,1,.467.455v2.735a.462.462,0,0,1-.467.454H18.618a1.847,1.847,0,0,0-1.868,1.823v3.189h3.924a.737.737,0,0,1,.743.821l-.28,2.185a.743.743,0,0,1-.743.639H16.75v8.681a13.579,13.579,0,0,0-1.646-27.1" transform="translate(-1.104 -38.978)" fill="#9e9e9e"/>
  </g>
</svg>
