<svg id="Instagram" xmlns="http://www.w3.org/2000/svg" width="28" height="27.19" viewBox="0 0 28 27.19">
  <path id="Instagram-2" data-name="Instagram" d="M103.791,46.853H96.7a2.5,2.5,0,0,0-2.532,2.459V56.2A2.5,2.5,0,0,0,96.7,58.655h7.09a2.5,2.5,0,0,0,2.533-2.459V49.312a2.5,2.5,0,0,0-2.533-2.459m-3.538,9.589a3.69,3.69,0,1,1,3.8-3.688,3.746,3.746,0,0,1-3.8,3.688m4.052-6.885a.738.738,0,1,1,.76-.738.75.75,0,0,1-.76.738" transform="translate(-86.247 -39.159)" fill="#9e9e9e"/>
  <path id="Tracciato_11" data-name="Tracciato 11" d="M100.253,50.4a2.46,2.46,0,1,0,2.532,2.459,2.5,2.5,0,0,0-2.532-2.459" transform="translate(-86.247 -39.262)" fill="#9e9e9e"/>
  <path id="Tracciato_12" data-name="Tracciato 12" d="M100.247,38.93h0a13.6,13.6,0,1,0,0,27.19h0a13.6,13.6,0,1,0,0-27.19m7.343,17.283a3.5,3.5,0,0,1-3.545,3.442h-7.6A3.5,3.5,0,0,1,92.9,56.213V48.836a3.5,3.5,0,0,1,3.545-3.442h7.6a3.5,3.5,0,0,1,3.545,3.442Z" transform="translate(-86.247 -38.93)" fill="#9e9e9e"/>
</svg>
