<svg id="LinkedIn" xmlns="http://www.w3.org/2000/svg" width="28" height="27.19" viewBox="0 0 28 27.19">
  <path id="LinkedIn-2" data-name="LinkedIn" d="M57.65,38.93h0a13.6,13.6,0,1,0,14,13.595,13.8,13.8,0,0,0-14-13.595M54.194,58.682a.132.132,0,0,1-.134.13H51.323a.132.132,0,0,1-.134-.13V50.188a.132.132,0,0,1,.134-.131H54.06a.132.132,0,0,1,.134.131Zm-1.5-9.792a1.752,1.752,0,1,1,1.8-1.751,1.778,1.778,0,0,1-1.8,1.751m11.72,9.339a.594.594,0,0,1-.6.584h-1.8a.594.594,0,0,1-.6-.584V54.144a1.5,1.5,0,0,0-3.006,0v4.085a.594.594,0,0,1-.6.584H56a.594.594,0,0,1-.6-.584V50.641a.6.6,0,0,1,.6-.584h1.8a.594.594,0,0,1,.6.584v.374a3.458,3.458,0,0,1,2.7-1.249,3.265,3.265,0,0,1,3.306,3.5Z" transform="translate(-43.65 -38.93)" fill="#9e9e9e"/>
</svg>
