<svg id="Tel" xmlns="http://www.w3.org/2000/svg" width="28" height="27.19" viewBox="0 0 28 27.19">
  <path id="Tel-2" data-name="Tel" d="M142.842,38.937a13.6,13.6,0,1,0,14,13.595,13.8,13.8,0,0,0-14-13.595m4.834,19.738a5.165,5.165,0,0,1-2.366-.158,13.419,13.419,0,0,1-7.737-5.509,8.888,8.888,0,0,1-1.416-2.552,3.737,3.737,0,0,1,.949-3.949c.426-.433.646-.51,1.5-.472.582-.15.855.232,1.065.763.308.78.673,1.538.979,2.319a.811.811,0,0,1-.008.631,7.551,7.551,0,0,1-.844,1.111.557.557,0,0,0-.1.758,9.522,9.522,0,0,0,4.832,3.983.548.548,0,0,0,.68-.176c.352-.421.72-.83,1.056-1.262a.553.553,0,0,1,.727-.211c.991.447,1.983.893,2.955,1.376a.651.651,0,0,1,.236.508,2.976,2.976,0,0,1-2.511,2.839" transform="translate(-128.842 -38.937)" fill="#9e9e9e"/>
</svg>
